<svg width="312" height="48" viewBox="0 0 312 48" fill="none" xmlns="http://www.w3.org/2000/svg">
<path fill-rule="evenodd" clip-rule="evenodd" d="M7.51209 24.0204L3.71552 34H7.79552L9.55649 29.4163L15.4275 44.912H20.0355L25.9664 29.3223L27.7635 34H31.7955L27.999 23.9796L31.7955 14H27.7155L25.9546 18.5837L20.0835 3.08801H15.4755L9.54464 18.6778L7.74753 14L3.71553 14L7.51209 24.0204ZM23.7795 22.384H11.7315L17.7315 6.49601L23.7795 22.384ZM11.7315 25.616L23.7795 25.616L17.7795 41.504L11.7315 25.616Z" fill="url(#paint0_linear_344_1972)"/>
<path d="M49.6075 12.002H51.6515L59.4635 31.574H57.2235L55.1235 26.338H46.1075L44.0355 31.574H41.7955L49.6075 12.002ZM54.5075 24.49L50.6155 14.522L46.7515 24.49H54.5075Z" fill="white"/>
<path d="M62.836 18.134H64.936V20.15C65.5893 19.31 66.3827 18.694 67.316 18.302C68.268 17.91 69.276 17.714 70.34 17.714C72.1133 17.714 73.4293 18.1806 74.288 19.114C75.1653 20.0473 75.604 21.298 75.604 22.866V31.574H73.448V23.062C73.448 21.9046 73.168 21.018 72.608 20.402C72.048 19.7673 71.152 19.45 69.92 19.45C67.848 19.45 66.2053 20.3833 64.992 22.25V31.574H62.836V18.134Z" fill="white"/>
<path d="M80.723 15.222C80.3496 15.222 80.0323 15.0913 79.771 14.83C79.5096 14.5686 79.379 14.2513 79.379 13.878C79.379 13.5046 79.5096 13.1873 79.771 12.926C80.0323 12.6646 80.3496 12.534 80.723 12.534C81.0963 12.534 81.4136 12.6646 81.675 12.926C81.955 13.1873 82.095 13.5046 82.095 13.878C82.095 14.2513 81.955 14.5686 81.675 14.83C81.4136 15.0913 81.0963 15.222 80.723 15.222ZM79.659 18.134H81.815V31.574H79.659V18.134Z" fill="white"/>
<path d="M86.0235 18.134H88.0955V20.234C89.3835 18.554 90.9795 17.714 92.8835 17.714C94.0035 17.714 94.8715 17.91 95.4875 18.302C96.1222 18.694 96.5795 19.282 96.8595 20.066C97.4568 19.2633 98.1942 18.6753 99.0715 18.302C99.9675 17.91 100.882 17.714 101.815 17.714C103.421 17.714 104.587 18.1246 105.315 18.946C106.043 19.7673 106.408 20.9806 106.408 22.586V31.574H104.28V22.838C104.28 21.5873 104.055 20.71 103.607 20.206C103.178 19.702 102.404 19.45 101.284 19.45C99.6782 19.45 98.3528 20.1686 97.3075 21.606C97.3635 21.8673 97.3915 22.2966 97.3915 22.894V31.574H95.2915V22.894C95.2915 21.6433 95.0862 20.7566 94.6755 20.234C94.2648 19.7113 93.4995 19.45 92.3795 19.45C90.7742 19.45 89.3648 20.346 88.1515 22.138V31.574H86.0235V18.134Z" fill="white"/>
<path d="M114.489 31.994C112.865 31.994 111.577 31.5926 110.625 30.79C109.692 29.9686 109.225 28.8486 109.225 27.43C109.225 25.9553 109.683 24.826 110.597 24.042C111.512 23.2393 112.837 22.838 114.573 22.838C116.515 22.838 118.185 23.2393 119.585 24.042V23.034C119.585 21.8206 119.24 20.9246 118.549 20.346C117.859 19.7486 116.767 19.45 115.273 19.45C113.687 19.45 112.221 19.7486 110.877 20.346V18.526C111.437 18.2833 112.147 18.0873 113.005 17.938C113.864 17.7886 114.685 17.714 115.469 17.714C117.597 17.714 119.175 18.1993 120.201 19.17C121.228 20.122 121.741 21.4473 121.741 23.146V31.574H119.725V29.838C118.549 31.2753 116.804 31.994 114.489 31.994ZM115.021 30.23C116.029 30.23 116.935 30.034 117.737 29.642C118.559 29.2313 119.175 28.662 119.585 27.934V25.778C118.857 25.3486 118.129 25.0406 117.401 24.854C116.692 24.6486 115.889 24.546 114.993 24.546C113.724 24.546 112.8 24.7886 112.221 25.274C111.661 25.7406 111.381 26.4593 111.381 27.43C111.381 29.2966 112.595 30.23 115.021 30.23Z" fill="white"/>
<path d="M129.781 31.994C128.512 31.994 127.522 31.6206 126.813 30.874C126.122 30.1273 125.777 29.0633 125.777 27.682V19.814H123.677V18.134H125.777V14.102H127.933V18.134H131.321V19.814H127.933V27.738C127.933 28.6713 128.12 29.334 128.493 29.726C128.866 30.0993 129.548 30.286 130.537 30.286C131.022 30.286 131.536 30.174 132.077 29.95V31.714C131.461 31.9006 130.696 31.994 129.781 31.994Z" fill="white"/>
<path d="M136.368 15.222C135.994 15.222 135.677 15.0913 135.415 14.83C135.154 14.5686 135.023 14.2513 135.023 13.878C135.023 13.5046 135.154 13.1873 135.415 12.926C135.677 12.6646 135.994 12.534 136.368 12.534C136.741 12.534 137.058 12.6646 137.319 12.926C137.599 13.1873 137.74 13.5046 137.74 13.878C137.74 14.2513 137.599 14.5686 137.319 14.83C137.058 15.0913 136.741 15.222 136.368 15.222ZM135.303 18.134H137.46V31.574H135.303V18.134Z" fill="white"/>
<path d="M148.556 31.994C147.1 31.994 145.803 31.7046 144.664 31.126C143.544 30.5473 142.667 29.726 142.032 28.662C141.416 27.5793 141.108 26.3193 141.108 24.882C141.108 23.4633 141.425 22.2126 142.06 21.13C142.695 20.0473 143.572 19.2073 144.692 18.61C145.831 18.0126 147.119 17.714 148.556 17.714C149.993 17.714 151.272 18.0126 152.392 18.61C153.531 19.2073 154.417 20.0473 155.052 21.13C155.687 22.2126 156.004 23.4633 156.004 24.882C156.004 26.3193 155.687 27.5793 155.052 28.662C154.436 29.726 153.559 30.5473 152.42 31.126C151.3 31.7046 150.012 31.994 148.556 31.994ZM148.556 30.286C150.161 30.286 151.44 29.8006 152.392 28.83C153.363 27.8406 153.848 26.5246 153.848 24.882C153.848 23.2206 153.363 21.9046 152.392 20.934C151.44 19.9446 150.161 19.45 148.556 19.45C146.951 19.45 145.663 19.9446 144.692 20.934C143.74 21.9046 143.264 23.2206 143.264 24.882C143.264 26.5246 143.74 27.8406 144.692 28.83C145.663 29.8006 146.951 30.286 148.556 30.286Z" fill="white"/>
<path d="M159.359 18.134H161.459V20.15C162.113 19.31 162.906 18.694 163.839 18.302C164.791 17.91 165.799 17.714 166.863 17.714C168.637 17.714 169.953 18.1806 170.811 19.114C171.689 20.0473 172.127 21.298 172.127 22.866V31.574H169.971V23.062C169.971 21.9046 169.691 21.018 169.131 20.402C168.571 19.7673 167.675 19.45 166.443 19.45C164.371 19.45 162.729 20.3833 161.515 22.25V31.574H159.359V18.134Z" fill="white"/>
<path d="M193.791 12.002H195.835L203.647 31.574H201.407L199.307 26.338H190.291L188.219 31.574H185.979L193.791 12.002ZM198.691 24.49L194.799 14.522L190.935 24.49H198.691Z" fill="white"/>
<path d="M212.622 31.994C211.203 31.994 209.924 31.714 208.786 31.154C207.666 30.5753 206.788 29.754 206.154 28.69C205.519 27.6073 205.202 26.338 205.202 24.882C205.202 23.4446 205.519 22.1846 206.154 21.102C206.807 20.0006 207.703 19.1606 208.842 18.582C209.98 18.0033 211.268 17.714 212.706 17.714C213.732 17.714 214.638 17.8073 215.422 17.994C216.206 18.1806 216.906 18.4793 217.522 18.89V20.71C216.346 19.87 214.806 19.45 212.902 19.45C211.259 19.45 209.924 19.926 208.898 20.878C207.871 21.83 207.358 23.1646 207.358 24.882C207.358 26.5993 207.871 27.934 208.898 28.886C209.924 29.8193 211.231 30.286 212.818 30.286C213.807 30.286 214.694 30.174 215.478 29.95C216.262 29.726 217.008 29.3806 217.718 28.914V30.734C217.064 31.182 216.327 31.4993 215.506 31.686C214.703 31.8913 213.742 31.994 212.622 31.994Z" fill="white"/>
<path d="M225.642 31.994C224.018 31.994 222.73 31.5926 221.778 30.79C220.844 29.9686 220.378 28.8486 220.378 27.43C220.378 25.9553 220.835 24.826 221.75 24.042C222.664 23.2393 223.99 22.838 225.726 22.838C227.667 22.838 229.338 23.2393 230.738 24.042V23.034C230.738 21.8206 230.392 20.9246 229.702 20.346C229.011 19.7486 227.919 19.45 226.426 19.45C224.839 19.45 223.374 19.7486 222.03 20.346V18.526C222.59 18.2833 223.299 18.0873 224.158 17.938C225.016 17.7886 225.838 17.714 226.622 17.714C228.75 17.714 230.327 18.1993 231.354 19.17C232.38 20.122 232.894 21.4473 232.894 23.146V31.574H230.878V29.838C229.702 31.2753 227.956 31.994 225.642 31.994ZM226.174 30.23C227.182 30.23 228.087 30.034 228.89 29.642C229.711 29.2313 230.327 28.662 230.738 27.934V25.778C230.01 25.3486 229.282 25.0406 228.554 24.854C227.844 24.6486 227.042 24.546 226.146 24.546C224.876 24.546 223.952 24.7886 223.374 25.274C222.814 25.7406 222.534 26.4593 222.534 27.43C222.534 29.2966 223.747 30.23 226.174 30.23Z" fill="white"/>
<path d="M243.128 31.994C241.803 31.994 240.608 31.7046 239.544 31.126C238.48 30.5473 237.64 29.7166 237.024 28.634C236.408 27.5513 236.1 26.3006 236.1 24.882C236.1 23.482 236.399 22.2406 236.996 21.158C237.612 20.0566 238.452 19.2073 239.516 18.61C240.599 18.0126 241.803 17.714 243.128 17.714C244.416 17.714 245.555 17.9473 246.544 18.414C247.552 18.862 248.355 19.5246 248.952 20.402V10.882H251.108V31.574H249.008V29.222C248.299 30.1553 247.459 30.8553 246.488 31.322C245.536 31.77 244.416 31.994 243.128 31.994ZM243.576 30.286C244.864 30.286 245.984 29.9593 246.936 29.306C247.907 28.634 248.579 27.7193 248.952 26.562V23.202C248.598 22.0446 247.935 21.13 246.964 20.458C246.012 19.786 244.883 19.45 243.576 19.45C242.587 19.45 241.682 19.6833 240.86 20.15C240.058 20.598 239.423 21.2326 238.956 22.054C238.49 22.8753 238.256 23.818 238.256 24.882C238.256 25.946 238.49 26.8886 238.956 27.71C239.423 28.5313 240.058 29.166 240.86 29.614C241.682 30.062 242.587 30.286 243.576 30.286Z" fill="white"/>
<path d="M262.259 31.994C259.814 31.994 257.901 31.3686 256.519 30.118C255.157 28.8673 254.475 27.122 254.475 24.882C254.475 22.6793 255.091 20.934 256.323 19.646C257.555 18.358 259.31 17.714 261.587 17.714C263.118 17.714 264.415 18.0126 265.479 18.61C266.543 19.1886 267.346 19.9913 267.887 21.018C268.429 22.0446 268.699 23.2113 268.699 24.518V25.694H256.491C256.566 27.2246 257.126 28.3726 258.171 29.138C259.235 29.9033 260.673 30.286 262.483 30.286C263.361 30.286 264.219 30.2113 265.059 30.062C265.918 29.894 266.683 29.67 267.355 29.39V31.21C266.795 31.434 266.03 31.6206 265.059 31.77C264.107 31.9193 263.174 31.994 262.259 31.994ZM266.683 24.154C266.646 22.698 266.198 21.55 265.339 20.71C264.481 19.87 263.221 19.45 261.559 19.45C259.935 19.45 258.694 19.8886 257.835 20.766C256.977 21.6246 256.529 22.754 256.491 24.154H266.683Z" fill="white"/>
<path d="M272.07 18.134H274.142V20.234C275.43 18.554 277.026 17.714 278.93 17.714C280.05 17.714 280.918 17.91 281.534 18.302C282.169 18.694 282.626 19.282 282.906 20.066C283.504 19.2633 284.241 18.6753 285.118 18.302C286.014 17.91 286.929 17.714 287.862 17.714C289.468 17.714 290.634 18.1246 291.362 18.946C292.09 19.7673 292.454 20.9806 292.454 22.586V31.574H290.326V22.838C290.326 21.5873 290.102 20.71 289.654 20.206C289.225 19.702 288.45 19.45 287.33 19.45C285.725 19.45 284.4 20.1686 283.354 21.606C283.41 21.8673 283.438 22.2966 283.438 22.894V31.574H281.338V22.894C281.338 21.6433 281.133 20.7566 280.722 20.234C280.312 19.7113 279.546 19.45 278.426 19.45C276.821 19.45 275.412 20.346 274.198 22.138V31.574H272.07V18.134Z" fill="white"/>
<path d="M297.504 37.118C296.646 37.118 295.88 37.034 295.208 36.866V35.13C295.414 35.2046 295.703 35.27 296.076 35.326C296.468 35.382 296.795 35.41 297.056 35.41C297.691 35.41 298.204 35.242 298.596 34.906C298.988 34.57 299.343 34.01 299.66 33.226L300.388 31.49L294.424 18.134H296.72L301.536 28.998L305.988 18.134H308.284L302.068 33.366C301.546 34.654 300.93 35.5966 300.22 36.194C299.53 36.81 298.624 37.118 297.504 37.118Z" fill="white"/>
<defs>
<linearGradient id="paint0_linear_344_1972" x1="7.21551" y1="4.08801" x2="26.7155" y2="46.088" gradientUnits="userSpaceOnUse">
<stop stop-color="#03DAC6"/>
<stop offset="0.0001" stop-color="#04DAC6"/>
<stop offset="1" stop-color="#BB86FC"/>
</linearGradient>
</defs>
</svg>
